<svg width="284" height="40" viewBox="0 0 284 40" fill="none" xmlns="http://www.w3.org/2000/svg">
<path d="M120.527 4.34195L120.513 4.3422L93.0828 4.82827L65.6528 5.31434C55.7073 5.49135 45.7629 5.66753 35.8189 5.84371C25.7 6.02298 15.5815 6.20224 5.46273 6.38237L5.46235 6.38238C4.59133 6.39722 3.44065 6.73092 2.47594 7.3198C1.5026 7.91395 0.824099 8.69972 0.704872 9.56156L120.527 4.34195ZM120.527 4.34195L120.54 4.34095M120.527 4.34195L120.54 4.34095M120.54 4.34095C140.684 2.87002 160.86 1.82219 181.05 1.19745C214.283 0.169453 247.553 0.278532 280.783 1.51478C281.567 1.5441 282.307 1.83552 282.779 2.28751C283.231 2.72066 283.449 3.30581 283.235 4.03925L283.234 4.03987C283.01 4.81278 282.321 5.51626 281.401 6.04182C280.488 6.56319 279.433 6.85898 278.607 6.87381C268.487 7.05396 258.367 7.23325 248.246 7.41255C238.304 7.5887 228.361 7.76485 218.417 7.94184C201.948 8.23424 185.479 8.52581 169.01 8.81738L168.97 8.81809C152.487 9.1099 136.005 9.40171 119.523 9.69434L119.509 9.69459L119.495 9.69559C103.678 10.85 87.8797 12.269 72.1084 13.9461L72.1524 14.9432C73.3654 14.9647 74.5792 14.9853 75.7928 15.006L75.795 15.006C77.0094 15.0267 78.2236 15.0473 79.4369 15.0688L79.4372 15.0688C94.4921 15.3267 109.548 15.5855 124.604 15.8442L124.695 15.8458C139.72 16.104 154.746 16.3622 169.77 16.6196C178.306 16.7668 186.842 16.9131 195.378 17.0594C203.914 17.2057 212.45 17.352 220.986 17.4992L220.986 17.4993L220.998 17.4992C234.031 17.4232 247.068 17.648 260.092 18.1701C260.922 18.2036 261.737 18.5575 262.218 19.082C262.454 19.3393 262.603 19.6291 262.65 19.9387C262.698 20.2456 262.65 20.6066 262.438 21.0199L262.86 21.2363L262.438 21.02C261.958 21.9563 261.088 22.5943 260.036 22.9966C258.983 23.3993 257.785 23.5499 256.728 23.5325M120.54 4.34095L256.728 23.5325M102.511 32.2991C114.842 30.4784 127.214 28.933 139.613 27.6664C164.677 25.107 189.853 23.6819 215.046 23.4008M102.511 32.2991L283.715 4.17955C283.162 6.07754 280.458 7.34066 278.616 7.37373C268.496 7.55388 258.375 7.73318 248.254 7.9125C238.311 8.08864 228.369 8.2648 218.426 8.44176C201.944 8.7344 185.461 9.02621 168.979 9.31801C152.496 9.60982 136.013 9.90163 119.532 10.1943C105.088 11.2484 90.6613 12.5232 76.256 14.0137C76.1088 14.0112 75.9615 14.0087 75.8142 14.0062L75.812 14.0061C74.5976 13.9855 73.3835 13.9648 72.1701 13.9433L72.1613 14.4433L72.2142 14.9404C73.5684 14.7964 74.9229 14.6543 76.2776 14.5141C77.3339 14.5321 78.3901 14.5502 79.4457 14.5689C94.501 14.8268 109.557 15.0856 124.613 15.3443C139.669 15.6031 154.724 15.8618 169.779 16.1197C178.315 16.2668 186.85 16.4131 195.386 16.5595C203.922 16.7058 212.459 16.8521 220.995 16.9993C234.036 16.9232 247.081 17.1481 260.112 17.6705C261.997 17.7465 263.901 19.2643 262.883 21.2482C261.775 23.4075 258.928 24.0688 256.719 24.0324M102.511 32.2991L102.124 32.2957M102.511 32.2991L102.546 32.7994C102.432 32.8162 102.319 32.8329 102.206 32.8497L102.205 32.8498C101.608 32.9379 101.013 33.0287 100.416 33.1197C100.096 33.1685 99.7747 33.2175 99.4526 33.2662L99.378 32.7718L99.3823 32.2718L102.124 32.2957M215.046 23.4008C216.157 23.3877 217.281 23.381 218.402 23.3745L218.412 23.3744C224.799 23.4835 231.185 23.5935 237.571 23.7035C243.954 23.8134 250.336 23.9233 256.719 24.0324M215.046 23.4008L215.041 22.9009C215.041 22.9009 215.04 22.9009 215.04 22.9009M215.046 23.4008L215.04 22.9009M256.719 24.0324L256.728 23.5325M256.719 24.0324L256.728 23.5325C256.728 23.5325 256.728 23.5325 256.728 23.5325M256.728 23.5325C250.347 23.4234 243.967 23.3136 237.587 23.2037L237.575 23.2035C231.19 23.0935 224.806 22.9836 218.421 22.8745V22.8743L218.41 22.8744L218.397 22.8745C217.277 22.8811 216.152 22.8877 215.04 22.9009M256.728 23.5325L102.059 31.8605M215.04 22.9009C189.832 23.1821 164.641 24.6081 139.562 27.1689C127.029 28.4494 114.523 30.0143 102.059 31.8605M102.059 31.8605C102.059 31.8605 102.059 31.8605 102.059 31.8605L102.124 32.2957M102.059 31.8605L102.124 32.2957M102.059 31.8605C101.459 31.949 100.86 32.0404 100.262 32.1317C99.9419 32.1804 99.6224 32.2292 99.3033 32.2774L99.3736 33.2717L148.819 33.7033L198.264 34.1348C199.087 34.1419 199.89 34.4989 200.367 35.0337C200.822 35.543 200.99 36.2127 200.594 36.9847C200.111 37.9271 199.242 38.5608 198.192 38.9593C197.14 39.3583 195.943 39.5062 194.881 39.4967L194.88 39.4967C190.056 39.4554 185.232 39.4133 180.408 39.3711L180.399 39.3711C175.572 39.3289 170.745 39.2867 165.918 39.2454C148.8 39.0966 131.683 38.9471 114.565 38.7975L114.553 38.7974C97.4315 38.6477 80.3099 38.4981 63.1884 38.3493M102.059 31.8605L25.1347 20.0612L25.1433 19.5612C25.1434 19.5612 25.1436 19.5613 25.1437 19.5613C40.1986 19.8192 55.2542 20.0779 70.3099 20.3366L70.3245 20.3369C85.3754 20.5956 100.426 20.8542 115.476 21.112C118.679 21.1666 121.881 21.2219 125.084 21.2773L125.089 21.2774L125.107 21.2777C128.305 21.333 131.503 21.3883 134.701 21.4427L134.747 22.4397C125.534 23.4476 116.333 24.6075 107.16 25.9194M63.1884 38.3493C62.5652 38.3437 61.8519 38.1059 61.3313 37.6972C60.8191 37.295 60.5406 36.7728 60.6239 36.1699L60.624 36.1688C60.7162 35.4893 61.2064 34.8247 61.9243 34.2725C62.6352 33.7256 63.4961 33.3476 64.1857 33.2129C78.4492 30.4269 92.7751 27.9815 107.16 25.9194M63.1884 38.3493L63.1839 38.8493L63.1882 38.3493C63.1883 38.3493 63.1883 38.3493 63.1884 38.3493ZM107.16 25.9194L107.089 25.4245M107.16 25.9194C107.16 25.9194 107.16 25.9194 107.16 25.9194L107.089 25.4245M107.089 25.4245C92.6953 27.4878 78.3612 29.9347 64.0899 32.7222C62.549 33.0231 60.3633 34.3722 60.1286 36.1015C59.9004 37.7548 61.7223 38.8361 63.1839 38.8493C80.3053 38.9981 97.4267 39.1477 114.548 39.2973C131.67 39.447 148.792 39.5966 165.913 39.7454C170.741 39.7867 175.568 39.8289 180.395 39.871C185.222 39.9132 190.048 39.9554 194.876 39.9967L107.089 25.4245ZM4.4636 11.7378C4.46366 11.7378 4.46372 11.7378 4.46377 11.7378L4.4636 11.7378ZM4.4636 11.7378C3.66345 11.7506 2.60059 11.6577 1.7979 11.3075C1.40146 11.1345 1.10211 10.9132 0.916821 10.6439C0.739218 10.3859 0.638396 10.0439 0.704847 9.56174L4.4636 11.7378ZM27.3204 13.7026L27.389 14.1978C27.3891 14.1978 27.3892 14.1978 27.3893 14.1978L27.3204 13.7026Z" fill="#F3F25B" stroke="black"/>
</svg>
