<svg xmlns="http://www.w3.org/2000/svg" xmlns:xlink="http://www.w3.org/1999/xlink" width="1234" zoomAndPan="magnify" viewBox="0 0 925.5 210.749996" height="281" preserveAspectRatio="xMidYMid meet" version="1.0"><defs><g/><clipPath id="61b09b6106"><path d="M 35 0 L 238.03125 0 L 238.03125 122 L 35 122 Z M 35 0 " clip-rule="nonzero"/></clipPath><clipPath id="f57727206b"><path d="M 0.296875 92 L 195 92 L 195 209.863281 L 0.296875 209.863281 Z M 0.296875 92 " clip-rule="nonzero"/></clipPath></defs><g clip-path="url(#61b09b6106)"><path fill="#ce0000" d="M 67.730469 121.570312 L 35.230469 60.625 L 144.238281 0.0078125 L 238.152344 26.792969 Z M 67.730469 121.570312 " fill-opacity="1" fill-rule="evenodd"/></g><g clip-path="url(#f57727206b)"><path fill="#fce000" d="M 0.296875 183.089844 L 163.273438 92.453125 L 194.710938 153.992188 L 94.203125 209.882812 Z M 0.296875 183.089844 " fill-opacity="1" fill-rule="evenodd"/></g><g fill="#ffffff" fill-opacity="1"><g transform="translate(238.185576, 140.95092)"><g><path d="M 27.9375 0.484375 C 25.988281 0.484375 23.921875 0.441406 21.734375 0.359375 C 19.546875 0.285156 17.378906 0.128906 15.234375 -0.109375 C 13.097656 -0.359375 11.140625 -0.726562 9.359375 -1.21875 C 7.898438 -1.539062 6.703125 -1.960938 5.765625 -2.484375 C 4.835938 -3.015625 4.148438 -4.023438 3.703125 -5.515625 C 3.253906 -7.015625 3.03125 -9.382812 3.03125 -12.625 C 5.539062 -11.738281 8.128906 -11.03125 10.796875 -10.5 C 13.472656 -9.976562 16.085938 -9.613281 18.640625 -9.40625 C 21.191406 -9.207031 23.5625 -9.109375 25.75 -9.109375 C 27.289062 -9.109375 28.96875 -9.128906 30.78125 -9.171875 C 32.601562 -9.210938 34.363281 -9.414062 36.0625 -9.78125 C 37.769531 -10.144531 39.1875 -10.75 40.3125 -11.59375 C 41.445312 -12.445312 42.015625 -13.644531 42.015625 -15.1875 C 42.015625 -17.039062 41.53125 -18.25 40.5625 -18.8125 C 39.59375 -19.382812 38.296875 -19.671875 36.671875 -19.671875 L 22.828125 -19.671875 C 19.109375 -19.671875 15.8125 -19.875 12.9375 -20.28125 C 10.0625 -20.6875 7.789062 -21.800781 6.125 -23.625 C 4.46875 -25.445312 3.640625 -28.539062 3.640625 -32.90625 C 3.640625 -37.6875 4.832031 -41.226562 7.21875 -43.53125 C 9.613281 -45.84375 13.035156 -47.363281 17.484375 -48.09375 C 21.941406 -48.820312 27.285156 -49.1875 33.515625 -49.1875 C 35.785156 -49.1875 38.4375 -49.144531 41.46875 -49.0625 C 44.507812 -48.988281 47.164062 -48.785156 49.4375 -48.453125 C 51.945312 -48.210938 53.910156 -47.828125 55.328125 -47.296875 C 56.742188 -46.773438 57.773438 -45.96875 58.421875 -44.875 C 59.066406 -43.78125 59.390625 -42.101562 59.390625 -39.84375 L 59.390625 -36.4375 C 58.898438 -37.25 57.660156 -37.875 55.671875 -38.3125 C 53.691406 -38.757812 51.304688 -39.0625 48.515625 -39.21875 C 45.722656 -39.382812 42.804688 -39.46875 39.765625 -39.46875 C 36.734375 -39.46875 33.921875 -39.46875 31.328125 -39.46875 C 29.546875 -39.46875 27.90625 -39.363281 26.40625 -39.15625 C 24.914062 -38.957031 23.722656 -38.472656 22.828125 -37.703125 C 21.941406 -36.941406 21.5 -35.707031 21.5 -34 C 21.5 -32.707031 21.78125 -31.753906 22.34375 -31.140625 C 22.914062 -30.535156 23.6875 -30.148438 24.65625 -29.984375 C 25.625 -29.828125 26.71875 -29.75 27.9375 -29.75 L 43.359375 -29.75 C 46.753906 -29.75 49.75 -29.445312 52.34375 -28.84375 C 54.9375 -28.238281 56.921875 -26.941406 58.296875 -24.953125 C 59.671875 -22.972656 60.359375 -19.878906 60.359375 -15.671875 C 60.359375 -10.804688 58.984375 -7.238281 56.234375 -4.96875 C 53.484375 -2.707031 49.675781 -1.234375 44.8125 -0.546875 C 39.957031 0.140625 34.332031 0.484375 27.9375 0.484375 Z M 27.9375 0.484375 "/></g></g></g><g fill="#ffffff" fill-opacity="1"><g transform="translate(300.979305, 140.95092)"><g><path d="M 5.703125 13 L 5.828125 -39.234375 C 5.828125 -41.171875 5.804688 -42.910156 5.765625 -44.453125 C 5.722656 -45.992188 5.625 -46.925781 5.46875 -47.25 C 6.113281 -47.40625 7.488281 -47.582031 9.59375 -47.78125 C 11.695312 -47.988281 14.125 -48.171875 16.875 -48.328125 C 19.632812 -48.492188 22.410156 -48.640625 25.203125 -48.765625 C 27.992188 -48.890625 30.523438 -48.953125 32.796875 -48.953125 C 40.328125 -48.953125 46.238281 -48.117188 50.53125 -46.453125 C 54.820312 -44.796875 57.835938 -42.144531 59.578125 -38.5 C 61.316406 -34.851562 62.101562 -30.035156 61.9375 -24.046875 C 61.78125 -17.972656 61.007812 -13.132812 59.625 -9.53125 C 58.25 -5.925781 55.921875 -3.375 52.640625 -1.875 C 49.367188 -0.382812 44.859375 0.359375 39.109375 0.359375 C 35.546875 0.359375 32.585938 0.015625 30.234375 -0.671875 C 27.890625 -1.359375 26.03125 -2.410156 24.65625 -3.828125 C 23.28125 -5.242188 22.226562 -6.960938 21.5 -8.984375 L 24.046875 -10.078125 L 24.046875 13 Z M 34 -9.359375 C 37.8125 -9.359375 40.34375 -10.628906 41.59375 -13.171875 C 42.851562 -15.722656 43.484375 -19.710938 43.484375 -25.140625 C 43.566406 -30.398438 42.894531 -34.0625 41.46875 -36.125 C 40.050781 -38.195312 37.363281 -39.234375 33.40625 -39.234375 C 32.425781 -39.234375 31.367188 -39.210938 30.234375 -39.171875 C 29.109375 -39.128906 28 -39.066406 26.90625 -38.984375 C 25.8125 -38.898438 24.859375 -38.820312 24.046875 -38.75 L 24.046875 -21.375 C 24.046875 -18.050781 24.453125 -15.539062 25.265625 -13.84375 C 26.078125 -12.144531 27.207031 -10.972656 28.65625 -10.328125 C 30.113281 -9.679688 31.894531 -9.359375 34 -9.359375 Z M 34 -9.359375 "/></g></g></g><g fill="#ffffff" fill-opacity="1"><g transform="translate(366.930944, 140.95092)"><g><path d="M 23.6875 0 L 10.5625 0 C 8.78125 0 7.484375 -0.441406 6.671875 -1.328125 C 5.867188 -2.222656 5.46875 -4.007812 5.46875 -6.6875 L 5.46875 -46.03125 C 7.726562 -46.59375 11.023438 -47.195312 15.359375 -47.84375 C 19.691406 -48.5 24.570312 -48.828125 30 -48.828125 C 35.664062 -48.828125 40.140625 -48.5 43.421875 -47.84375 C 46.703125 -47.195312 49.109375 -46.207031 50.640625 -44.875 C 52.179688 -43.539062 53.175781 -41.835938 53.625 -39.765625 C 54.070312 -37.703125 54.296875 -35.21875 54.296875 -32.3125 L 36.921875 -32.3125 L 36.921875 -34 C 36.921875 -35.945312 36.578125 -37.363281 35.890625 -38.25 C 35.203125 -39.144531 34.367188 -39.710938 33.390625 -39.953125 C 32.421875 -40.203125 31.410156 -40.328125 30.359375 -40.328125 C 28.742188 -40.328125 27.347656 -40.160156 26.171875 -39.828125 C 24.992188 -39.503906 24.164062 -39.019531 23.6875 -38.375 Z M 23.6875 0 "/></g></g></g><g fill="#ffffff" fill-opacity="1"><g transform="translate(423.165948, 140.95092)"><g><path d="M 19.546875 0.484375 C 14.128906 0.484375 10.363281 -0.566406 8.25 -2.671875 C 6.144531 -4.773438 5.09375 -8.21875 5.09375 -13 L 5.21875 -48.453125 L 23.3125 -48.453125 L 23.3125 -13.71875 C 23.3125 -11.207031 23.695312 -9.40625 24.46875 -8.3125 C 25.238281 -7.226562 26.515625 -6.6875 28.296875 -6.6875 C 29.347656 -6.6875 30.238281 -6.765625 30.96875 -6.921875 C 31.695312 -7.085938 32.144531 -7.207031 32.3125 -7.28125 L 32.3125 -0.609375 C 31.988281 -0.523438 31.378906 -0.398438 30.484375 -0.234375 C 29.597656 -0.078125 28.300781 0.078125 26.59375 0.234375 C 24.894531 0.398438 22.546875 0.484375 19.546875 0.484375 Z M 14.453125 -54.296875 C 11.617188 -54.296875 9.59375 -54.65625 8.375 -55.375 C 7.164062 -56.101562 6.5625 -57.441406 6.5625 -59.390625 C 6.5625 -61.335938 7.1875 -62.691406 8.4375 -63.453125 C 9.695312 -64.222656 11.785156 -64.609375 14.703125 -64.609375 C 17.453125 -64.523438 19.410156 -64.117188 20.578125 -63.390625 C 21.753906 -62.671875 22.300781 -61.335938 22.21875 -59.390625 C 22.21875 -57.441406 21.671875 -56.101562 20.578125 -55.375 C 19.492188 -54.65625 17.453125 -54.296875 14.453125 -54.296875 Z M 14.453125 -54.296875 "/></g></g></g><g fill="#ffffff" fill-opacity="1"><g transform="translate(456.445405, 140.95092)"><g><path d="M 10.078125 0 C 7.003906 0 5.46875 -1.578125 5.46875 -4.734375 L 5.46875 -45.546875 C 7.894531 -46.359375 11.535156 -47.109375 16.390625 -47.796875 C 21.253906 -48.484375 26.597656 -48.828125 32.421875 -48.828125 C 38.660156 -48.828125 43.582031 -48.484375 47.1875 -47.796875 C 50.789062 -47.109375 53.460938 -45.929688 55.203125 -44.265625 C 56.941406 -42.609375 58.070312 -40.398438 58.59375 -37.640625 C 59.125 -34.890625 59.390625 -31.453125 59.390625 -27.328125 L 59.390625 -6.796875 C 59.390625 -5.015625 59.265625 -3.617188 59.015625 -2.609375 C 58.773438 -1.597656 58.148438 -0.890625 57.140625 -0.484375 C 56.128906 -0.078125 54.570312 0.125 52.46875 0.125 L 41.421875 0 L 41.421875 -31.578125 C 41.421875 -34.242188 40.609375 -36.144531 38.984375 -37.28125 C 37.367188 -38.414062 35.179688 -38.984375 32.421875 -38.984375 C 31.453125 -38.984375 30.398438 -38.878906 29.265625 -38.671875 C 28.128906 -38.472656 27.054688 -38.234375 26.046875 -37.953125 C 25.035156 -37.671875 24.207031 -37.285156 23.5625 -36.796875 L 23.5625 0 Z M 10.078125 0 "/></g></g></g><g fill="#ffffff" fill-opacity="1"><g transform="translate(520.453715, 140.95092)"><g><path d="M 24.65625 0.484375 C 20.28125 0.484375 16.859375 0.0195312 14.390625 -0.90625 C 11.921875 -1.84375 10.195312 -3.382812 9.21875 -5.53125 C 8.25 -7.675781 7.765625 -10.648438 7.765625 -14.453125 L 7.765625 -38.984375 L 2.546875 -38.984375 L 2.546875 -48.453125 L 7.765625 -48.453125 L 7.765625 -54.65625 C 7.765625 -56.675781 7.90625 -58.171875 8.1875 -59.140625 C 8.476562 -60.117188 9.066406 -60.726562 9.953125 -60.96875 C 10.847656 -61.207031 12.265625 -61.328125 14.203125 -61.328125 L 25.875 -61.328125 C 25.875 -61.003906 25.875 -60.597656 25.875 -60.109375 C 25.875 -59.628906 25.875 -59.023438 25.875 -58.296875 L 25.875 -48.453125 L 37.65625 -48.453125 L 37.65625 -38.984375 L 25.984375 -38.984375 L 25.984375 -15.90625 C 25.984375 -12.664062 26.285156 -10.316406 26.890625 -8.859375 C 27.503906 -7.410156 29.148438 -6.6875 31.828125 -6.6875 C 32.546875 -6.6875 33.492188 -6.765625 34.671875 -6.921875 C 35.847656 -7.085938 36.679688 -7.25 37.171875 -7.40625 L 37.171875 -0.734375 C 36.597656 -0.648438 35.195312 -0.425781 32.96875 -0.0625 C 30.75 0.300781 27.976562 0.484375 24.65625 0.484375 Z M 24.65625 0.484375 "/></g></g></g><g fill="#ffffff" fill-opacity="1"><g transform="translate(560.534805, 140.95092)"><g><path d="M -0.734375 0 L 17.734375 -24.046875 L 3.40625 -43.484375 C 2.832031 -44.367188 2.203125 -45.296875 1.515625 -46.265625 C 0.828125 -47.242188 0.117188 -48.015625 -0.609375 -48.578125 L 22.46875 -48.578125 L 31.328125 -36.4375 L 40.6875 -48.578125 L 54.046875 -48.578125 C 53.960938 -48.335938 53.71875 -48.035156 53.3125 -47.671875 C 52.90625 -47.304688 52.421875 -46.71875 51.859375 -45.90625 L 38.859375 -26.359375 L 58.296875 0 L 42.875 0 C 40.363281 0 38.175781 -0.441406 36.3125 -1.328125 C 34.445312 -2.222656 32.828125 -3.601562 31.453125 -5.46875 L 24.171875 -15.0625 L 12.75 0 Z M -0.734375 0 "/></g></g></g><g fill="#ffffff" fill-opacity="1"><g transform="translate(617.620007, 140.95092)"><g><path d="M 5.703125 13 L 5.828125 -39.234375 C 5.828125 -41.171875 5.804688 -42.910156 5.765625 -44.453125 C 5.722656 -45.992188 5.625 -46.925781 5.46875 -47.25 C 6.113281 -47.40625 7.488281 -47.582031 9.59375 -47.78125 C 11.695312 -47.988281 14.125 -48.171875 16.875 -48.328125 C 19.632812 -48.492188 22.410156 -48.640625 25.203125 -48.765625 C 27.992188 -48.890625 30.523438 -48.953125 32.796875 -48.953125 C 40.328125 -48.953125 46.238281 -48.117188 50.53125 -46.453125 C 54.820312 -44.796875 57.835938 -42.144531 59.578125 -38.5 C 61.316406 -34.851562 62.101562 -30.035156 61.9375 -24.046875 C 61.78125 -17.972656 61.007812 -13.132812 59.625 -9.53125 C 58.25 -5.925781 55.921875 -3.375 52.640625 -1.875 C 49.367188 -0.382812 44.859375 0.359375 39.109375 0.359375 C 35.546875 0.359375 32.585938 0.015625 30.234375 -0.671875 C 27.890625 -1.359375 26.03125 -2.410156 24.65625 -3.828125 C 23.28125 -5.242188 22.226562 -6.960938 21.5 -8.984375 L 24.046875 -10.078125 L 24.046875 13 Z M 34 -9.359375 C 37.8125 -9.359375 40.34375 -10.628906 41.59375 -13.171875 C 42.851562 -15.722656 43.484375 -19.710938 43.484375 -25.140625 C 43.566406 -30.398438 42.894531 -34.0625 41.46875 -36.125 C 40.050781 -38.195312 37.363281 -39.234375 33.40625 -39.234375 C 32.425781 -39.234375 31.367188 -39.210938 30.234375 -39.171875 C 29.109375 -39.128906 28 -39.066406 26.90625 -38.984375 C 25.8125 -38.898438 24.859375 -38.820312 24.046875 -38.75 L 24.046875 -21.375 C 24.046875 -18.050781 24.453125 -15.539062 25.265625 -13.84375 C 26.078125 -12.144531 27.207031 -10.972656 28.65625 -10.328125 C 30.113281 -9.679688 31.894531 -9.359375 34 -9.359375 Z M 34 -9.359375 "/></g></g></g><g fill="#ffffff" fill-opacity="1"><g transform="translate(683.571646, 140.95092)"><g><path d="M 21.375 0.484375 C 15.707031 0.484375 11.617188 -0.460938 9.109375 -2.359375 C 6.597656 -4.265625 5.34375 -7.648438 5.34375 -12.515625 L 5.34375 -54.78125 C 5.34375 -56.5625 5.503906 -57.9375 5.828125 -58.90625 C 6.148438 -59.875 6.796875 -60.519531 7.765625 -60.84375 C 8.742188 -61.164062 10.164062 -61.328125 12.03125 -61.328125 L 23.8125 -61.328125 C 23.726562 -61.085938 23.625 -60.195312 23.5 -58.65625 C 23.375 -57.125 23.3125 -55.425781 23.3125 -53.5625 L 23.3125 -14.578125 C 23.3125 -11.660156 23.675781 -9.613281 24.40625 -8.4375 C 25.132812 -7.269531 26.515625 -6.6875 28.546875 -6.6875 C 29.273438 -6.6875 30.0625 -6.765625 30.90625 -6.921875 C 31.757812 -7.085938 32.265625 -7.207031 32.421875 -7.28125 L 32.421875 -0.609375 C 31.859375 -0.523438 30.804688 -0.320312 29.265625 0 C 27.734375 0.320312 25.101562 0.484375 21.375 0.484375 Z M 21.375 0.484375 "/></g></g></g><g fill="#ffffff" fill-opacity="1"><g transform="translate(716.608182, 140.95092)"><g><path d="M 32.3125 0.734375 C 27.695312 0.734375 23.609375 0.410156 20.046875 -0.234375 C 16.484375 -0.890625 13.503906 -2.109375 11.109375 -3.890625 C 8.722656 -5.671875 6.921875 -8.195312 5.703125 -11.46875 C 4.492188 -14.75 3.890625 -18.984375 3.890625 -24.171875 C 3.890625 -29.347656 4.492188 -33.578125 5.703125 -36.859375 C 6.921875 -40.140625 8.722656 -42.671875 11.109375 -44.453125 C 13.503906 -46.234375 16.484375 -47.445312 20.046875 -48.09375 C 23.609375 -48.738281 27.695312 -49.0625 32.3125 -49.0625 C 37 -49.0625 41.082031 -48.738281 44.5625 -48.09375 C 48.050781 -47.445312 50.96875 -46.234375 53.3125 -44.453125 C 55.664062 -42.671875 57.445312 -40.140625 58.65625 -36.859375 C 59.875 -33.578125 60.484375 -29.347656 60.484375 -24.171875 C 60.484375 -18.984375 59.875 -14.726562 58.65625 -11.40625 C 57.445312 -8.09375 55.644531 -5.566406 53.25 -3.828125 C 50.863281 -2.085938 47.929688 -0.890625 44.453125 -0.234375 C 40.972656 0.410156 36.925781 0.734375 32.3125 0.734375 Z M 32.3125 -8.140625 C 34.570312 -8.140625 36.410156 -8.5625 37.828125 -9.40625 C 39.242188 -10.257812 40.316406 -11.835938 41.046875 -14.140625 C 41.773438 -16.453125 42.140625 -19.796875 42.140625 -24.171875 C 42.140625 -28.546875 41.773438 -31.882812 41.046875 -34.1875 C 40.316406 -36.5 39.242188 -38.078125 37.828125 -38.921875 C 36.410156 -39.773438 34.570312 -40.203125 32.3125 -40.203125 C 30.207031 -40.203125 28.382812 -39.773438 26.84375 -38.921875 C 25.300781 -38.078125 24.144531 -36.5 23.375 -34.1875 C 22.601562 -31.882812 22.21875 -28.546875 22.21875 -24.171875 C 22.21875 -19.796875 22.601562 -16.453125 23.375 -14.140625 C 24.144531 -11.835938 25.300781 -10.257812 26.84375 -9.40625 C 28.382812 -8.5625 30.207031 -8.140625 32.3125 -8.140625 Z M 32.3125 -8.140625 "/></g></g></g><g fill="#ffffff" fill-opacity="1"><g transform="translate(780.98086, 140.95092)"><g><path d="M 23.6875 0 L 10.5625 0 C 8.78125 0 7.484375 -0.441406 6.671875 -1.328125 C 5.867188 -2.222656 5.46875 -4.007812 5.46875 -6.6875 L 5.46875 -46.03125 C 7.726562 -46.59375 11.023438 -47.195312 15.359375 -47.84375 C 19.691406 -48.5 24.570312 -48.828125 30 -48.828125 C 35.664062 -48.828125 40.140625 -48.5 43.421875 -47.84375 C 46.703125 -47.195312 49.109375 -46.207031 50.640625 -44.875 C 52.179688 -43.539062 53.175781 -41.835938 53.625 -39.765625 C 54.070312 -37.703125 54.296875 -35.21875 54.296875 -32.3125 L 36.921875 -32.3125 L 36.921875 -34 C 36.921875 -35.945312 36.578125 -37.363281 35.890625 -38.25 C 35.203125 -39.144531 34.367188 -39.710938 33.390625 -39.953125 C 32.421875 -40.203125 31.410156 -40.328125 30.359375 -40.328125 C 28.742188 -40.328125 27.347656 -40.160156 26.171875 -39.828125 C 24.992188 -39.503906 24.164062 -39.019531 23.6875 -38.375 Z M 23.6875 0 "/></g></g></g><g fill="#ffffff" fill-opacity="1"><g transform="translate(837.215864, 140.95092)"><g><path d="M 32.3125 0.734375 C 26.644531 0.734375 21.988281 0.390625 18.34375 -0.296875 C 14.695312 -0.992188 11.820312 -2.191406 9.71875 -3.890625 C 7.613281 -5.585938 6.113281 -7.972656 5.21875 -11.046875 C 4.332031 -14.128906 3.890625 -18.140625 3.890625 -23.078125 C 3.890625 -29.390625 4.78125 -34.40625 6.5625 -38.125 C 8.34375 -41.851562 11.4375 -44.566406 15.84375 -46.265625 C 20.257812 -47.972656 26.394531 -48.828125 34.25 -48.828125 C 40.40625 -48.828125 45.300781 -48.175781 48.9375 -46.875 C 52.582031 -45.582031 55.210938 -43.554688 56.828125 -40.796875 C 58.453125 -38.046875 59.265625 -34.523438 59.265625 -30.234375 L 59.265625 -20.890625 L 25.5 -20.890625 C 25.5 -22.585938 25.882812 -24.023438 26.65625 -25.203125 C 27.425781 -26.378906 28.863281 -26.96875 30.96875 -26.96875 L 43.109375 -26.96875 L 43 -29.515625 C 43 -32.835938 42.328125 -35.328125 40.984375 -36.984375 C 39.648438 -38.640625 37.160156 -39.46875 33.515625 -39.46875 C 30.523438 -39.46875 28.195312 -39 26.53125 -38.0625 C 24.875 -37.132812 23.738281 -35.515625 23.125 -33.203125 C 22.519531 -30.898438 22.21875 -27.601562 22.21875 -23.3125 C 22.21875 -19.425781 22.601562 -16.507812 23.375 -14.5625 C 24.144531 -12.625 25.539062 -11.3125 27.5625 -10.625 C 29.59375 -9.9375 32.46875 -9.59375 36.1875 -9.59375 C 37.5625 -9.59375 39.421875 -9.632812 41.765625 -9.71875 C 44.117188 -9.800781 46.53125 -9.898438 49 -10.015625 C 51.46875 -10.140625 53.65625 -10.257812 55.5625 -10.375 C 57.46875 -10.5 58.660156 -10.644531 59.140625 -10.8125 L 59.140625 -8.625 C 59.140625 -7.488281 58.957031 -6.289062 58.59375 -5.03125 C 58.226562 -3.78125 57.519531 -2.75 56.46875 -1.9375 C 55.019531 -0.8125 52.332031 -0.0859375 48.40625 0.234375 C 44.476562 0.566406 39.113281 0.734375 32.3125 0.734375 Z M 32.3125 0.734375 "/></g></g></g></svg>